<?xml version="1.0" encoding="utf-8"?>
<!-- Generator: Adobe Illustrator 23.0.4, SVG Export Plug-In . SVG Version: 6.00 Build 0)  -->
<svg version="1.1" id="Layer_1" xmlns="http://www.w3.org/2000/svg" xmlns:xlink="http://www.w3.org/1999/xlink" x="0px" y="0px"
	 viewBox="0 0 792 612" style="enable-background:new 0 0 792 612;" xml:space="preserve">
<style type="text/css">
	.st0{fill-rule:evenodd;clip-rule:evenodd;fill:#EBA724;}
	.st1{fill:#979999;}
	.st2{fill:#989998;}
</style>
<g>
	<path class="st0" d="M207.7,254.91c-28.18,0-51.02,22.85-51.02,51.02c0,28.18,22.85,51.02,51.02,51.02
		c28.18,0,51.02-22.85,51.02-51.02S235.88,254.91,207.7,254.91z M236.88,336.54c-0.01,0.33-0.05,0.63-0.14,0.93
		c-1.23,4.07-11.6,5.02-21.69,2.64c-0.29,0.83-0.61,1.73-0.96,2.68c-1.77,4.96-4.17,8.75-6.14,8.2c-1.97-0.55-3.34-5.48-1-10.19
		c0.53-1.06,1.16-2.04,1.83-2.94c-0.25-0.12-0.41-0.2-0.41-0.2c-0.46-0.17-2.12-0.79-5.01-1.93c-8.29-3.64-22.66-13.19-21.8-37.58
		c0.16-4.82,0.55-11.49,0.3-16.21c-0.16-2.58-0.68-7.54-0.74-8.28c-0.37-4.14-0.35-6.01,0.81-6.17c1.18-0.17,1.55,1.31,3.03,5.75
		c0.05,0.02,2.32-1.42,3.73-2.02c2.82-1.19,5.55-1.53,6.94-1c0.71,0.25,1.2,0.7,1.24,1.24c0.03,0.51-0.56,1.2-1.44,2.18
		c-4.2,4.94-17.53,20.28,5.33,39.14c8.54,6.94,14.1,8.93,14.99,9.22c0.37-1.47,0.89-3,1.68-4.47c2.45-4.65,7.25-6.42,8.85-5.14
		c1.6,1.28-0.08,5.43-3.07,9.76c-0.51,0.74-1,1.44-1.45,2.09c4.95,2.16,8.12,3.71,11.54,6.35c0.75,0.61,1.44,1.24,2.01,1.91
		C236.55,333.95,237.04,335.33,236.88,336.54z"/>
	<g>
		<g>
			<path class="st1" d="M309.8,254.91c18.61,0,33.71,14.17,33.71,33.71c0,19.54-15.09,33.71-33.71,33.71
				c-18.61,0-33.61-14.17-33.61-33.71C276.19,269.08,291.19,254.91,309.8,254.91z M309.8,312.23c13.24,0,23.06-9.63,23.06-23.61
				c0-14.17-9.82-23.61-23.06-23.61c-13.33,0-23.06,9.45-23.06,23.61C286.74,302.6,296.47,312.23,309.8,312.23z"/>
			<path class="st1" d="M404.53,274.73c-3.89-6.02-11.21-9.72-18.98-9.72c-13.43,0-23.06,9.63-23.06,23.61
				c0,14.17,10,23.52,23.06,23.52c8.7,0,16.48-4.63,20.19-11.48l10.28,2.78c-5.46,11.48-16.95,18.89-30.47,18.89
				c-18.61,0-33.61-14.17-33.61-33.71c0-19.54,15-33.71,33.61-33.71c12.69,0,23.61,6.76,29.45,17.04L404.53,274.73z"/>
			<path class="st1" d="M477.31,256.21v64.82h-10.28V292.6h-31.67v28.43h-10.28v-64.82h10.28v26.85h31.67v-26.85H477.31z"/>
			<path class="st1" d="M493.14,321.03v-64.82h10.28v64.82H493.14z"/>
			<path class="st1" d="M544.81,256.21c11.39,0,19.08,6.94,19.08,16.3c0,6.48-5.09,11.95-9.82,13.15v0.09
				c6.2,1.02,13.7,7.59,13.7,16.02c0,11.11-7.59,19.26-21.95,19.26h-26.58v-64.82H544.81z M542.78,282.6
				c6.48,0,10.83-3.98,10.83-8.89c0-5.28-4.35-8.8-10.83-8.8h-13.24v17.69H542.78z M544.91,312.32c7.13,0,12.22-4.26,12.22-10.83
				c0-6.48-5.56-10.93-12.5-10.93h-15.09v21.76H544.91z"/>
			<path class="st1" d="M618.06,306.3h-30.28l-6.02,14.72h-11.02l27.41-64.82h9.54l27.41,64.82h-11.02L618.06,306.3z M614.35,297.32
				l-8.33-20.28c-1.39-3.52-2.96-8.43-3.06-8.43h-0.09c-0.09,0-1.67,4.91-3.06,8.43l-8.33,20.28H614.35z"/>
		</g>
		<g>
			<path class="st2" d="M287.24,338.81c3.05,0,5.13,1.8,5.13,4.37c0,1.8-1.52,3.35-2.95,3.63v0.03c1.73,0.23,4.09,1.98,4.09,4.52
				c0,3.07-2.13,5.23-5.86,5.23h-7.08v-17.77H287.24z M286.84,346.19c2.06,0,3.45-1.3,3.45-2.82c0-1.68-1.4-2.77-3.45-2.77h-4.19
				v5.59H286.84z M287.52,354.77c2.18,0,3.83-1.32,3.83-3.45c0-2.03-1.8-3.48-3.96-3.48h-4.75v6.93H287.52z"/>
			<path class="st2" d="M316.11,338.81v10.41c0,5.03-2.67,7.74-7.31,7.74s-7.29-2.72-7.29-7.74v-10.41h2.08v10.43
				c0,3.86,1.78,5.76,5.2,5.76c3.45,0,5.23-1.9,5.23-5.76v-10.43H316.11z"/>
			<path class="st2" d="M334.9,343.73c-0.38-2.16-2.23-3.45-4.44-3.45c-2.34,0-3.99,1.12-3.99,2.89c0,1.95,2.46,2.56,4.82,3.27
				c2.49,0.74,5.86,1.85,5.86,5.31c0,3-2.59,5.18-6.5,5.18c-3.81,0-6.22-2.23-6.78-5.23l2-0.53c0.25,2.06,1.96,3.88,4.85,3.88
				c2.64,0,4.24-1.4,4.24-3.25c0-2.59-3.07-3.12-5.59-3.91c-2.03-0.63-5.03-1.55-5.03-4.62c0-2.77,2.61-4.82,6.17-4.82
				c3.22,0,5.76,1.9,6.35,4.75L334.9,343.73z"/>
			<path class="st2" d="M345.49,356.58v-17.77h2.08v17.77H345.49z"/>
			<path class="st2" d="M371.86,338.81v17.77h-1.95l-7.9-10.64c-1.52-2.11-2.64-3.73-2.67-3.73h-0.03c-0.03,0,0.05,2.21,0.05,5.05
				v9.32h-2.08v-17.77h1.96l7.9,10.61c1.34,1.8,2.64,3.66,2.67,3.66h0.03c0.03,0-0.05-2.39-0.05-4.92v-9.34H371.86z"/>
			<path class="st2" d="M393.6,354.62v1.95h-12.01v-17.77h11.86v1.95h-9.77v5.48h7.84v1.85h-7.84v6.52H393.6z"/>
			<path class="st2" d="M411.42,343.73c-0.38-2.16-2.23-3.45-4.44-3.45c-2.34,0-3.99,1.12-3.99,2.89c0,1.95,2.46,2.56,4.82,3.27
				c2.49,0.74,5.86,1.85,5.86,5.31c0,3-2.59,5.18-6.5,5.18c-3.81,0-6.22-2.23-6.78-5.23l2-0.53c0.25,2.06,1.96,3.88,4.85,3.88
				c2.64,0,4.24-1.4,4.24-3.25c0-2.59-3.07-3.12-5.59-3.91c-2.03-0.63-5.03-1.55-5.03-4.62c0-2.77,2.61-4.82,6.17-4.82
				c3.22,0,5.76,1.9,6.35,4.75L411.42,343.73z"/>
			<path class="st2" d="M431.56,343.73c-0.38-2.16-2.23-3.45-4.44-3.45c-2.34,0-3.99,1.12-3.99,2.89c0,1.95,2.46,2.56,4.82,3.27
				c2.49,0.74,5.86,1.85,5.86,5.31c0,3-2.59,5.18-6.5,5.18c-3.81,0-6.22-2.23-6.78-5.23l2-0.53c0.25,2.06,1.96,3.88,4.85,3.88
				c2.64,0,4.24-1.4,4.24-3.25c0-2.59-3.07-3.12-5.59-3.91c-2.03-0.63-5.03-1.55-5.03-4.62c0-2.77,2.61-4.82,6.17-4.82
				c3.22,0,5.76,1.9,6.35,4.75L431.56,343.73z"/>
			<path class="st2" d="M463.04,343.73c-0.38-2.16-2.23-3.45-4.44-3.45c-2.34,0-3.99,1.12-3.99,2.89c0,1.95,2.46,2.56,4.82,3.27
				c2.49,0.74,5.86,1.85,5.86,5.31c0,3-2.59,5.18-6.5,5.18c-3.81,0-6.22-2.23-6.78-5.23l2-0.53c0.25,2.06,1.96,3.88,4.85,3.88
				c2.64,0,4.24-1.4,4.24-3.25c0-2.59-3.07-3.12-5.59-3.91c-2.03-0.63-5.03-1.55-5.03-4.62c0-2.77,2.61-4.82,6.17-4.82
				c3.22,0,5.76,1.9,6.35,4.75L463.04,343.73z"/>
			<path class="st2" d="M481.6,338.45c5.1,0,9.24,3.88,9.24,9.24s-4.14,9.24-9.24,9.24c-5.1,0-9.22-3.88-9.22-9.24
				S476.5,338.45,481.6,338.45z M481.6,354.9c4.01,0,7.08-2.95,7.08-7.21c0-4.32-3.07-7.21-7.08-7.21c-4.04,0-7.08,2.89-7.08,7.21
				C474.52,351.96,477.56,354.9,481.6,354.9z"/>
			<path class="st2" d="M510.67,354.62v1.95h-11.6v-17.77h2.08v15.82H510.67z"/>
			<path class="st2" d="M532.45,338.81v10.41c0,5.03-2.67,7.74-7.31,7.74c-4.65,0-7.29-2.72-7.29-7.74v-10.41h2.08v10.43
				c0,3.86,1.78,5.76,5.2,5.76c3.45,0,5.23-1.9,5.23-5.76v-10.43H532.45z"/>
			<path class="st2" d="M553.86,338.81v1.95h-5.97v15.82h-2.06v-15.82h-5.94v-1.95H553.86z"/>
			<path class="st2" d="M561.78,356.58v-17.77h2.08v17.77H561.78z"/>
			<path class="st2" d="M581.41,338.45c5.1,0,9.24,3.88,9.24,9.24s-4.14,9.24-9.24,9.24s-9.22-3.88-9.22-9.24
				S576.3,338.45,581.41,338.45z M581.41,354.9c4.01,0,7.08-2.95,7.08-7.21c0-4.32-3.07-7.21-7.08-7.21c-4.04,0-7.08,2.89-7.08,7.21
				C574.32,351.96,577.37,354.9,581.41,354.9z"/>
			<path class="st2" d="M613.45,338.81v17.77h-1.95l-7.9-10.64c-1.52-2.11-2.64-3.73-2.67-3.73h-0.03c-0.03,0,0.05,2.21,0.05,5.05
				v9.32h-2.08v-17.77h1.96l7.9,10.61c1.34,1.8,2.64,3.66,2.67,3.66h0.03c0.03,0-0.05-2.39-0.05-4.92v-9.34H613.45z"/>
			<path class="st2" d="M632.72,343.73c-0.38-2.16-2.23-3.45-4.44-3.45c-2.34,0-3.99,1.12-3.99,2.89c0,1.95,2.46,2.56,4.82,3.27
				c2.49,0.74,5.86,1.85,5.86,5.31c0,3-2.59,5.18-6.5,5.18c-3.81,0-6.22-2.23-6.78-5.23l2.01-0.53c0.25,2.06,1.96,3.88,4.85,3.88
				c2.64,0,4.24-1.4,4.24-3.25c0-2.59-3.07-3.12-5.59-3.91c-2.03-0.63-5.03-1.55-5.03-4.62c0-2.77,2.61-4.82,6.17-4.82
				c3.22,0,5.76,1.9,6.35,4.75L632.72,343.73z"/>
		</g>
	</g>
</g>
</svg>
