<?xml version="1.0" encoding="UTF-8"?>
<svg width="140px" height="30px" viewBox="0 0 140 30" version="1.1" xmlns="http://www.w3.org/2000/svg" xmlns:xlink="http://www.w3.org/1999/xlink">
    <!-- Generator: Sketch 58 (84663) - https://sketch.com -->
    <title>OCHIBA LOGO HORIZ GREY</title>
    <desc>Created with Sketch.</desc>
    <g id="Symbols" stroke="none" stroke-width="1" fill="none" fill-rule="evenodd">
        <g id="HEADER-AND-NAV" transform="translate(0.000000, -6.000000)">
            <g id="OCHIBA-LOGO-HORIZ-GREY" transform="translate(0.000000, 6.000000)">
                <path d="M15.0582524,0.265048544 C6.85048544,0.265048544 0.198058252,6.92038835 0.198058252,15.1252427 C0.198058252,23.3330097 6.85339806,29.9854369 15.0582524,29.9854369 C23.2660194,29.9854369 29.9184466,23.3300971 29.9184466,15.1252427 C29.9184466,6.92038835 23.2660194,0.265048544 15.0582524,0.265048544 Z M23.5572816,24.0407767 C23.5543689,24.1368932 23.5427184,24.2242718 23.5165049,24.3116505 C23.1582524,25.4970874 20.1378641,25.7737864 17.1990291,25.0805825 C17.1145631,25.3223301 17.0213592,25.584466 16.9194175,25.861165 C16.4038835,27.3058252 15.7048544,28.4097087 15.131068,28.2495146 C14.5572816,28.0893204 14.1582524,26.6533981 14.8398058,25.2815534 C14.9941748,24.9728155 15.1776699,24.6873786 15.3728155,24.4252427 C15.3,24.3902913 15.2533981,24.3669903 15.2533981,24.3669903 C15.1194175,24.3174757 14.6359223,24.1368932 13.7941748,23.8048544 C11.3796117,22.7446602 7.19417476,19.9631068 7.44466019,12.8592233 C7.49126214,11.4553398 7.60485437,9.51262136 7.53203883,8.13786408 C7.48543689,7.38640777 7.33398058,5.94174757 7.31650485,5.72621359 C7.20873786,4.52038835 7.21456311,3.97572816 7.55242718,3.92912621 C7.8961165,3.87961165 8.0038835,4.31067961 8.43495146,5.6038835 C8.44951456,5.60970874 9.11067961,5.19029126 9.52135922,5.01553398 C10.3427184,4.66893204 11.1378641,4.56990291 11.5427184,4.72427184 C11.7495146,4.79708738 11.892233,4.92815534 11.9038835,5.08543689 C11.9126214,5.23398058 11.7407767,5.43495146 11.484466,5.72038835 C10.261165,7.1592233 6.37864078,11.6271845 13.0368932,17.1203883 C15.5242718,19.1417476 17.1436893,19.7213592 17.4029126,19.8058252 C17.5106796,19.3776699 17.6621359,18.9320388 17.892233,18.5038835 C18.6058252,17.1495146 20.0038835,16.6339806 20.4699029,17.0067961 C20.9359223,17.3796117 20.4466019,18.5883495 19.5757282,19.8495146 C19.4271845,20.0650485 19.284466,20.268932 19.1533981,20.4582524 C20.5951456,21.0873786 21.5184466,21.538835 22.5145631,22.307767 C22.7330097,22.4854369 22.9339806,22.668932 23.1,22.8640777 C23.461165,23.2864078 23.6038835,23.6883495 23.5572816,24.0407767 Z" id="Shape" fill="#EBA724"></path>
                <g id="Group" transform="translate(34.951456, 0.000000)" fill-rule="nonzero">
                    <g fill="#979999">
                        <path d="M9.84466019,0.265048544 C15.2650485,0.265048544 19.6631068,4.39223301 19.6631068,10.0834951 C19.6631068,15.7747573 15.2679612,19.9019417 9.84466019,19.9019417 C4.42427184,19.9019417 0.0553398058,15.7747573 0.0553398058,10.0834951 C0.0553398058,4.39223301 4.42427184,0.265048544 9.84466019,0.265048544 Z M9.84466019,16.9601942 C13.7009709,16.9601942 16.561165,14.1553398 16.561165,10.0834951 C16.561165,5.95631068 13.7009709,3.20679612 9.84466019,3.20679612 C5.96213592,3.20679612 3.12815534,5.9592233 3.12815534,10.0834951 C3.12815534,14.1553398 5.96213592,16.9601942 9.84466019,16.9601942 Z" id="Shape"></path>
                        <path d="M37.4359223,6.03786408 C36.3029126,4.28446602 34.1708738,3.20679612 31.907767,3.20679612 C27.9961165,3.20679612 25.1912621,6.01165049 25.1912621,10.0834951 C25.1912621,14.2106796 28.1038835,16.9339806 31.907767,16.9339806 C34.4417476,16.9339806 36.707767,15.5854369 37.7883495,13.5902913 L40.7825243,14.4 C39.192233,17.7436893 35.8456311,19.9019417 31.907767,19.9019417 C26.4873786,19.9019417 22.1184466,15.7747573 22.1184466,10.0834951 C22.1184466,4.39223301 26.4873786,0.265048544 31.907767,0.265048544 C35.6038835,0.265048544 38.784466,2.23398058 40.4854369,5.22815534 L37.4359223,6.03786408 Z" id="Path"></path>
                        <polygon id="Path" points="58.6339806 0.64368932 58.6339806 19.523301 55.6398058 19.523301 55.6398058 11.2427184 46.415534 11.2427184 46.415534 19.523301 43.4213592 19.523301 43.4213592 0.64368932 46.415534 0.64368932 46.415534 8.46407767 55.6398058 8.46407767 55.6398058 0.64368932 58.6339806 0.64368932"></polygon>
                        <polygon id="Path" points="63.2446602 19.523301 63.2446602 0.64368932 66.238835 0.64368932 66.238835 19.523301"></polygon>
                        <path d="M78.2941748,0.64368932 C81.6116505,0.64368932 83.8514563,2.66504854 83.8514563,5.39126214 C83.8514563,7.27864078 82.368932,8.87184466 80.9912621,9.22135922 L80.9912621,9.24757282 C82.7970874,9.54466019 84.9815534,11.4582524 84.9815534,13.9135922 C84.9815534,17.1495146 82.7708738,19.523301 78.5883495,19.523301 L70.8466019,19.523301 L70.8466019,0.64368932 L78.2941748,0.64368932 L78.2941748,0.64368932 Z M77.7029126,8.33009709 C79.5902913,8.33009709 80.8572816,7.17087379 80.8572816,5.7407767 C80.8572816,4.20291262 79.5902913,3.1776699 77.7029126,3.1776699 L73.8466019,3.1776699 L73.8466019,8.33009709 L77.7029126,8.33009709 Z M78.323301,16.9864078 C80.4,16.9864078 81.8825243,15.7456311 81.8825243,13.8320388 C81.8825243,11.9446602 80.2631068,10.6485437 78.2417476,10.6485437 L73.8466019,10.6485437 L73.8466019,16.9864078 L78.323301,16.9864078 Z" id="Shape"></path>
                        <path d="M99.6291262,15.2330097 L90.8097087,15.2330097 L89.0563107,19.5203883 L85.8466019,19.5203883 L93.8300971,0.640776699 L96.6087379,0.640776699 L104.592233,19.5203883 L101.382524,19.5203883 L99.6291262,15.2330097 Z M98.5485437,12.6174757 L96.1223301,6.71067961 C95.7174757,5.68543689 95.2601942,4.25533981 95.231068,4.25533981 L95.2048544,4.25533981 C95.1786408,4.25533981 94.7184466,5.68543689 94.3135922,6.71067961 L91.8873786,12.6174757 L98.5485437,12.6174757 L98.5485437,12.6174757 Z" id="Shape"></path>
                    </g>
                    <g transform="translate(1.165049, 24.466019)" fill="#989998">
                        <path d="M2.10873786,0.23592233 C2.99708738,0.23592233 3.60291262,0.760194175 3.60291262,1.50873786 C3.60291262,2.03300971 3.16019417,2.48446602 2.74368932,2.56601942 L2.74368932,2.57475728 C3.24757282,2.64174757 3.93495146,3.15145631 3.93495146,3.89126214 C3.93495146,4.78543689 3.31456311,5.41456311 2.22815534,5.41456311 L0.166019417,5.41456311 L0.166019417,0.238834951 L2.10873786,0.238834951 L2.10873786,0.23592233 Z M1.99223301,2.38543689 C2.59223301,2.38543689 2.99708738,2.00679612 2.99708738,1.56407767 C2.99708738,1.07475728 2.58932039,0.757281553 1.99223301,0.757281553 L0.77184466,0.757281553 L0.77184466,2.38543689 L1.99223301,2.38543689 Z M2.19029126,4.88446602 C2.82524272,4.88446602 3.30582524,4.5 3.30582524,3.87961165 C3.30582524,3.28834951 2.7815534,2.86601942 2.15242718,2.86601942 L0.768932039,2.86601942 L0.768932039,4.88446602 L2.19029126,4.88446602 Z" id="Shape"></path>
                        <path d="M10.5174757,0.23592233 L10.5174757,3.26796117 C10.5174757,4.73300971 9.73980583,5.5223301 8.38834951,5.5223301 C7.0368932,5.5223301 6.26504854,4.73009709 6.26504854,3.26796117 L6.26504854,0.23592233 L6.87087379,0.23592233 L6.87087379,3.27378641 C6.87087379,4.39805825 7.38932039,4.95145631 8.38543689,4.95145631 C9.39029126,4.95145631 9.90873786,4.39805825 9.90873786,3.27378641 L9.90873786,0.23592233 L10.5174757,0.23592233 Z" id="Path"></path>
                        <path d="M15.9902913,1.66893204 C15.8796117,1.03980583 15.3407767,0.66407767 14.6970874,0.66407767 C14.015534,0.66407767 13.5349515,0.990291262 13.5349515,1.50582524 C13.5349515,2.07378641 14.2514563,2.25145631 14.938835,2.45825243 C15.6640777,2.67378641 16.6456311,2.99708738 16.6456311,4.00485437 C16.6456311,4.87864078 15.8912621,5.51359223 14.7524272,5.51359223 C13.6427184,5.51359223 12.9407767,4.86407767 12.7776699,3.99029126 L13.3601942,3.83592233 C13.4330097,4.43592233 13.931068,4.96601942 14.7728155,4.96601942 C15.5417476,4.96601942 16.007767,4.55825243 16.007767,4.01941748 C16.007767,3.26504854 15.1135922,3.11067961 14.3796117,2.88058252 C13.7883495,2.69708738 12.9145631,2.42912621 12.9145631,1.53495146 C12.9145631,0.72815534 13.6747573,0.131067961 14.7116505,0.131067961 C15.6495146,0.131067961 16.3893204,0.684466019 16.561165,1.51456311 L15.9902913,1.66893204 Z" id="Path"></path>
                        <polygon id="Path" points="19.0747573 5.41165049 19.0747573 0.23592233 19.6805825 0.23592233 19.6805825 5.41165049"></polygon>
                        <path d="M26.7553398,0.23592233 L26.7553398,5.41165049 L26.1873786,5.41165049 L23.8864078,2.31262136 C23.4436893,1.69805825 23.1174757,1.22621359 23.1087379,1.22621359 L23.1,1.22621359 C23.0912621,1.22621359 23.1145631,1.86990291 23.1145631,2.69708738 L23.1145631,5.41165049 L22.5087379,5.41165049 L22.5087379,0.23592233 L23.0796117,0.23592233 L25.3805825,3.32621359 C25.7708738,3.85048544 26.1495146,4.39223301 26.1582524,4.39223301 L26.1669903,4.39223301 C26.1757282,4.39223301 26.1524272,3.6961165 26.1524272,2.9592233 L26.1524272,0.238834951 L26.7553398,0.238834951 L26.7553398,0.23592233 Z" id="Path"></path>
                        <polygon id="Path" points="33.0873786 4.8407767 33.0873786 5.40873786 29.5893204 5.40873786 29.5893204 0.233009709 33.0436893 0.233009709 33.0436893 0.800970874 30.1980583 0.800970874 30.1980583 2.39708738 32.4815534 2.39708738 32.4815534 2.93592233 30.1980583 2.93592233 30.1980583 4.83495146 33.0873786 4.83495146"></polygon>
                        <path d="M38.2776699,1.66893204 C38.1669903,1.03980583 37.6281553,0.66407767 36.984466,0.66407767 C36.3029126,0.66407767 35.8223301,0.990291262 35.8223301,1.50582524 C35.8223301,2.07378641 36.538835,2.25145631 37.2262136,2.45825243 C37.9514563,2.67378641 38.9330097,2.99708738 38.9330097,4.00485437 C38.9330097,4.87864078 38.1786408,5.51359223 37.0398058,5.51359223 C35.9300971,5.51359223 35.2281553,4.86407767 35.0650485,3.99029126 L35.6475728,3.83592233 C35.7203883,4.43592233 36.2184466,4.96601942 37.0601942,4.96601942 C37.8291262,4.96601942 38.2951456,4.55825243 38.2951456,4.01941748 C38.2951456,3.26504854 37.4009709,3.11067961 36.6669903,2.88058252 C36.0757282,2.69708738 35.2019417,2.42912621 35.2019417,1.53495146 C35.2019417,0.72815534 35.9621359,0.131067961 36.9990291,0.131067961 C37.9368932,0.131067961 38.676699,0.684466019 38.8485437,1.51456311 L38.2776699,1.66893204 Z" id="Path"></path>
                        <path d="M44.1436893,1.66893204 C44.0330097,1.03980583 43.4941748,0.66407767 42.8504854,0.66407767 C42.168932,0.66407767 41.6883495,0.990291262 41.6883495,1.50582524 C41.6883495,2.07378641 42.4048544,2.25145631 43.092233,2.45825243 C43.8174757,2.67378641 44.7990291,2.99708738 44.7990291,4.00485437 C44.7990291,4.87864078 44.0446602,5.51359223 42.9058252,5.51359223 C41.7961165,5.51359223 41.0941748,4.86407767 40.931068,3.99029126 L41.5135922,3.83592233 C41.5864078,4.43592233 42.084466,4.96601942 42.9262136,4.96601942 C43.6951456,4.96601942 44.161165,4.55825243 44.161165,4.01941748 C44.161165,3.26504854 43.2669903,3.11067961 42.5330097,2.88058252 C41.9417476,2.69708738 41.0679612,2.42912621 41.0679612,1.53495146 C41.0679612,0.72815534 41.8281553,0.131067961 42.8650485,0.131067961 C43.8029126,0.131067961 44.5427184,0.684466019 44.7145631,1.51456311 L44.1436893,1.66893204 Z" id="Path"></path>
                        <path d="M53.3126214,1.66893204 C53.2019417,1.03980583 52.6631068,0.66407767 52.0194175,0.66407767 C51.3378641,0.66407767 50.8572816,0.990291262 50.8572816,1.50582524 C50.8572816,2.07378641 51.5737864,2.25145631 52.261165,2.45825243 C52.9864078,2.67378641 53.9679612,2.99708738 53.9679612,4.00485437 C53.9679612,4.87864078 53.2135922,5.51359223 52.0747573,5.51359223 C50.9650485,5.51359223 50.2631068,4.86407767 50.1,3.99029126 L50.6825243,3.83592233 C50.7553398,4.43592233 51.2533981,4.96601942 52.0951456,4.96601942 C52.8640777,4.96601942 53.3300971,4.55825243 53.3300971,4.01941748 C53.3300971,3.26504854 52.4359223,3.11067961 51.7019417,2.88058252 C51.1106796,2.69708738 50.2368932,2.42912621 50.2368932,1.53495146 C50.2368932,0.72815534 50.9970874,0.131067961 52.0339806,0.131067961 C52.9718447,0.131067961 53.7116505,0.684466019 53.8834951,1.51456311 L53.3126214,1.66893204 Z" id="Path"></path>
                        <path d="M58.7184466,0.131067961 C60.2038835,0.131067961 61.4097087,1.26116505 61.4097087,2.8223301 C61.4097087,4.38349515 60.2038835,5.51359223 58.7184466,5.51359223 C57.2330097,5.51359223 56.0330097,4.38349515 56.0330097,2.8223301 C56.0330097,1.26116505 57.2330097,0.131067961 58.7184466,0.131067961 Z M58.7184466,4.9223301 C59.8864078,4.9223301 60.7805825,4.0631068 60.7805825,2.8223301 C60.7805825,1.56407767 59.8864078,0.722330097 58.7184466,0.722330097 C57.5417476,0.722330097 56.6563107,1.56407767 56.6563107,2.8223301 C56.6563107,4.06601942 57.5417476,4.9223301 58.7184466,4.9223301 Z" id="Shape"></path>
                        <polygon id="Path" points="67.1854369 4.8407767 67.1854369 5.40873786 63.8067961 5.40873786 63.8067961 0.233009709 64.4126214 0.233009709 64.4126214 4.8407767"></polygon>
                        <path d="M73.5291262,0.23592233 L73.5291262,3.26796117 C73.5291262,4.73300971 72.7514563,5.5223301 71.4,5.5223301 C70.0456311,5.5223301 69.276699,4.73009709 69.276699,3.26796117 L69.276699,0.23592233 L69.8825243,0.23592233 L69.8825243,3.27378641 C69.8825243,4.39805825 70.4009709,4.95145631 71.3970874,4.95145631 C72.4019417,4.95145631 72.9203883,4.39805825 72.9203883,3.27378641 L72.9203883,0.23592233 L73.5291262,0.23592233 Z" id="Path"></path>
                        <polygon id="Path" points="79.7650485 0.23592233 79.7650485 0.803883495 78.0262136 0.803883495 78.0262136 5.41165049 77.4262136 5.41165049 77.4262136 0.803883495 75.6961165 0.803883495 75.6961165 0.23592233"></polygon>
                        <polygon id="Path" points="82.0718447 5.41165049 82.0718447 0.23592233 82.6776699 0.23592233 82.6776699 5.41165049"></polygon>
                        <path d="M87.7893204,0.131067961 C89.2747573,0.131067961 90.4805825,1.26116505 90.4805825,2.8223301 C90.4805825,4.38349515 89.2747573,5.51359223 87.7893204,5.51359223 C86.3038835,5.51359223 85.1038835,4.38349515 85.1038835,2.8223301 C85.1038835,1.26116505 86.3009709,0.131067961 87.7893204,0.131067961 Z M87.7893204,4.9223301 C88.9572816,4.9223301 89.8514563,4.0631068 89.8514563,2.8223301 C89.8514563,1.56407767 88.9572816,0.722330097 87.7893204,0.722330097 C86.6126214,0.722330097 85.7271773,1.56407767 85.7271773,2.8223301 C85.7242718,4.06601942 86.6126214,4.9223301 87.7893204,4.9223301 Z" id="Shape"></path>
                        <path d="M97.1213592,0.23592233 L97.1213592,5.41165049 L96.5533981,5.41165049 L94.2524272,2.31262136 C93.8097087,1.69805825 93.4834951,1.22621359 93.4747573,1.22621359 L93.4660194,1.22621359 C93.4572816,1.22621359 93.4805825,1.86990291 93.4805825,2.69708738 L93.4805825,5.41165049 L92.8747573,5.41165049 L92.8747573,0.23592233 L93.4456311,0.23592233 L95.7466019,3.32621359 C96.1368932,3.85048544 96.515534,4.39223301 96.5242718,4.39223301 L96.5330097,4.39223301 C96.5417476,4.39223301 96.5184466,3.6961165 96.5184466,2.9592233 L96.5184466,0.238834951 L97.1213592,0.238834951 L97.1213592,0.23592233 Z" id="Path"></path>
                        <path d="M102.733981,1.66893204 C102.623301,1.03980583 102.084466,0.66407767 101.440777,0.66407767 C100.759223,0.66407767 100.278641,0.990291262 100.278641,1.50582524 C100.278641,2.07378641 100.995146,2.25145631 101.682524,2.45825243 C102.407767,2.67378641 103.38932,2.99708738 103.38932,4.00485437 C103.38932,4.87864078 102.634951,5.51359223 101.496117,5.51359223 C100.386408,5.51359223 99.684466,4.86407767 99.5213592,3.99029126 L100.106796,3.83592233 C100.179612,4.43592233 100.67767,4.96601942 101.519417,4.96601942 C102.28835,4.96601942 102.754369,4.55825243 102.754369,4.01941748 C102.754369,3.26504854 101.860194,3.11067961 101.126214,2.88058252 C100.534951,2.69708738 99.661165,2.42912621 99.661165,1.53495146 C99.661165,0.72815534 100.421359,0.131067961 101.458252,0.131067961 C102.396117,0.131067961 103.135922,0.684466019 103.307767,1.51456311 L102.733981,1.66893204 Z" id="Path"></path>
                    </g>
                </g>
            </g>
        </g>
    </g>
</svg>